# Blender 3.6.18
# www.blender.org
mtllib bottle1.mtl
o Beer_Bottle2_Material_0
v 3.000000 2.011279 -0.439895
v 3.258563 0.204212 -0.355882
v 3.000000 0.204212 -0.439894
v 3.258563 2.011279 -0.355883
v 3.418365 0.204212 -0.135935
v 3.418365 2.011279 -0.135935
v 3.418364 0.204213 0.135935
v 3.418364 2.011279 0.135934
v 3.258563 0.204213 0.355882
v 3.258563 2.011279 0.355882
v 3.000000 0.204213 0.439894
v 3.258563 0.204213 0.355882
v 3.000000 2.011280 0.439894
v 2.741436 0.204213 0.355882
v 2.741436 2.011279 0.355881
v 2.581635 0.204213 0.135935
v 2.581635 2.011279 0.135934
v 2.581635 0.204212 -0.135935
v 3.238162 2.189943 0.327801
v 3.239440 2.618716 0.077798
v 3.147982 2.618716 0.203679
v 2.581635 2.011279 -0.135936
v 2.741436 0.204212 -0.355882
v 2.741436 2.011279 -0.355883
v 3.237469 0.038548 -0.326848
v 3.000000 2.189942 -0.405185
v 3.147982 2.618716 -0.203681
v 3.238162 2.189943 -0.327802
v 3.385353 2.189943 -0.125210
v 3.385353 2.189943 0.125208
v 3.239440 2.618716 -0.077800
v 2.761838 2.189943 -0.327802
v 3.000000 2.618716 -0.251763
v 2.760560 2.618716 -0.077800
v 2.852018 2.618716 -0.203681
v 2.614646 2.189943 0.125208
v 2.614646 2.189943 -0.125210
v 2.761838 2.189943 0.327801
v 2.760560 2.618716 0.077798
v 3.000000 2.618716 0.251762
v 2.852018 2.618716 0.203679
v 3.000000 2.189943 0.405184
v 3.147982 2.618716 0.203679
v 3.000000 2.189943 0.405184
v 2.761838 2.189943 0.327801
v 2.614646 2.189943 0.125208
v 2.614646 2.189943 -0.125210
v 2.761838 2.189943 -0.327802
v 3.000000 2.189942 -0.405185
v 3.385353 2.189943 -0.125210
v 3.385353 2.189943 0.125208
v 3.238162 2.189943 -0.327802
v 3.238162 2.189943 0.327801
v 3.258563 2.011279 0.355882
v 3.096678 3.211101 0.133065
v 3.000000 2.957678 0.180638
v 3.106177 2.957678 0.146139
v 2.828202 2.957678 0.055819
v 2.843571 3.211101 -0.050828
v 2.828202 2.957678 -0.055821
v 2.893823 2.957678 -0.146140
v 3.000000 3.211101 0.164478
v 2.893823 2.957678 0.146139
v 3.156429 3.211101 -0.050828
v 3.171797 2.957678 0.055819
v 3.171797 2.957678 -0.055821
v 3.000000 3.211101 -0.164480
v 3.000000 2.957678 -0.180639
v 2.843571 3.211101 0.050826
v 3.156429 3.211101 0.050826
v 3.106177 2.957678 0.146139
v 3.156429 3.211101 0.050826
v 3.113971 3.233804 0.156867
v 3.096678 3.211101 0.133065
v 3.096678 3.211101 -0.133067
v 3.106177 2.957678 -0.146140
v 3.000000 3.233804 -0.193900
v 3.090820 3.366548 -0.125004
v 3.113971 3.233804 -0.156868
v 3.096678 3.211101 -0.133067
v 3.000000 3.233804 -0.193900
v 3.113971 3.233804 -0.156868
v 2.843571 3.211101 0.050826
v 2.815591 3.233804 -0.059919
v 2.843571 3.211101 -0.050828
v 3.000000 3.233804 0.193898
v 3.000000 3.211101 0.164478
v 3.156429 3.211101 -0.050828
v 3.184409 3.233804 -0.059919
v 2.886029 3.233804 -0.156868
v 2.903322 3.211101 -0.133067
v 2.886029 3.233804 0.156867
v 2.903322 3.211101 0.133065
v 3.184409 3.233804 0.059917
v 3.000000 3.211101 -0.164480
v 2.815591 3.233804 0.059917
v 2.853050 3.366548 0.047746
v 2.832013 3.366548 -0.054583
v 2.853050 3.366548 -0.047748
v 2.815591 3.233804 0.059917
v 2.853050 3.366548 -0.047748
v 2.815591 3.233804 -0.059919
v 3.000000 3.233804 0.193898
v 3.090820 3.366548 0.125002
v 3.000000 3.366548 0.154511
v 3.146950 3.366548 -0.047748
v 3.184409 3.233804 -0.059919
v 2.886029 3.233804 -0.156868
v 2.909180 3.366548 -0.125004
v 2.886029 3.233804 0.156867
v 2.909180 3.366548 0.125002
v 3.146950 3.366548 0.047746
v 3.184409 3.233804 0.059917
v 3.000000 3.366548 -0.154513
v 2.853050 3.366548 0.047746
v 3.113971 3.233804 0.156867
v 3.090820 3.366548 0.125002
v 3.103821 3.366548 0.142897
v 3.000000 3.444230 0.159866
v 3.000000 3.366548 0.176631
v 3.000000 3.366548 0.154511
v 3.103821 3.366548 0.142897
v 3.000000 3.366548 0.176631
v 3.146950 3.366548 -0.047748
v 3.103822 3.366548 -0.142899
v 3.167987 3.366548 -0.054583
v 2.896178 3.366548 -0.142899
v 2.909180 3.366548 -0.125004
v 2.909180 3.366548 0.125002
v 2.896178 3.366548 0.142897
v 3.167987 3.366548 0.054581
v 3.146950 3.366548 0.047746
v 3.000000 3.366548 -0.154513
v 3.000000 3.366548 -0.176633
v 2.832013 3.366548 0.054581
v 3.090820 3.366548 0.125002
v 3.090820 3.366548 -0.125004
v 2.847958 3.444230 -0.049403
v 3.093967 3.444230 0.129334
v 3.152042 3.444230 -0.049403
v 3.167987 3.366548 -0.054583
v 3.093967 3.444230 -0.129336
v 3.152042 3.444230 -0.049403
v 2.896178 3.366548 -0.142899
v 2.847958 3.444230 -0.049403
v 2.906033 3.444230 -0.129336
v 2.906033 3.444230 0.129334
v 2.896178 3.366548 0.142897
v 3.152042 3.444230 0.049400
v 3.167987 3.366548 0.054581
v 3.000000 3.366548 -0.176633
v 3.000000 3.444230 -0.159868
v 2.847958 3.444230 0.049400
v 2.832013 3.366548 0.054581
v 3.093967 3.444230 0.129334
v 3.103821 3.366548 0.142897
v 3.103822 3.366548 -0.142899
v 2.832013 3.366548 -0.054583
v 3.336705 0.023511 -0.109402
v 3.336705 0.023511 0.109402
v 3.000000 0.084834 0.000000
v 3.000000 0.038548 -0.404006
v 2.762531 0.038548 -0.326848
v 2.615767 0.038548 -0.124845
v 2.615767 0.038548 0.124845
v 2.762531 0.038548 0.326848
v 3.000000 0.038548 0.404007
v 3.237469 0.038548 0.326848
v 3.237469 0.038548 0.326848
v 3.384233 0.038548 0.124845
v 3.384233 0.038548 -0.124845
v 3.208095 0.023511 -0.286418
v 3.000000 0.038548 -0.404006
v 3.237469 0.038548 -0.326848
v 3.384233 0.038548 -0.124845
v 3.384233 0.038548 0.124845
v 3.237469 0.038548 0.326848
v 3.208095 0.023511 0.286418
v 3.000000 0.038548 0.404007
v 3.000000 0.023511 0.354032
v 2.791905 0.023511 0.286418
v 2.762531 0.038548 0.326848
v 2.663295 0.023511 0.109402
v 2.615767 0.038548 0.124845
v 2.615767 0.038548 -0.124845
v 2.663295 0.023511 -0.109402
v 2.762531 0.038548 -0.326848
v 2.791905 0.023511 -0.286418
v 3.000000 0.023511 -0.354032
v 3.238162 2.189943 0.327801
v 3.238162 2.189943 0.327801
v 2.903322 3.211101 -0.133067
v 2.903322 3.211101 0.133065
v 3.096678 3.211101 0.133065
v 3.113971 3.233804 0.156867
v 3.093967 3.444230 0.129334
v 3.093967 3.444230 -0.129336
v 3.000000 3.444230 -0.159868
v 2.906033 3.444230 -0.129336
v 2.847958 3.444230 0.049400
v 2.906033 3.444230 0.129334
v 3.000000 3.444230 0.159866
v 3.152042 3.444230 0.049400
vn -0.0000 0.0940 -0.9956
vn 0.5846 -0.1043 -0.8046
vn -0.0000 -0.1043 -0.9945
vn 0.5852 0.0940 -0.8054
vn 0.9459 -0.1043 -0.3073
vn 0.9468 0.0940 -0.3076
vn 0.9459 -0.1043 0.3073
vn 0.9468 0.0940 0.3076
vn 0.5846 -0.1043 0.8046
vn 0.5852 0.0940 0.8054
vn -0.0000 -0.1043 0.9945
vn -0.0000 0.0940 0.9956
vn -0.5846 -0.1043 0.8046
vn -0.5852 0.0940 0.8054
vn -0.9459 -0.1043 0.3073
vn -0.9468 0.0940 0.3076
vn -0.9459 -0.1043 -0.3073
vn 0.5534 0.3369 0.7617
vn 0.9143 0.2753 0.2971
vn 0.5651 0.2753 0.7777
vn -0.9468 0.0940 -0.3076
vn -0.5846 -0.1043 -0.8046
vn -0.5852 0.0940 -0.8054
vn 0.5745 -0.2117 -0.7907
vn -0.0000 0.3369 -0.9415
vn 0.5651 0.2754 -0.7777
vn 0.5534 0.3369 -0.7617
vn 0.8955 0.3369 -0.2910
vn 0.8955 0.3369 0.2910
vn 0.9143 0.2753 -0.2971
vn -0.5534 0.3369 -0.7617
vn -0.0000 0.2753 -0.9613
vn -0.9143 0.2754 -0.2971
vn -0.5651 0.2754 -0.7777
vn -0.8955 0.3369 0.2910
vn -0.8955 0.3369 -0.2910
vn -0.5534 0.3369 0.7617
vn -0.9143 0.2754 0.2971
vn -0.0000 0.2754 0.9613
vn -0.5651 0.2754 0.7777
vn -0.0000 0.3369 0.9415
vn 0.5650 0.2753 0.7778
vn -0.0000 0.1907 0.9816
vn -0.5770 0.1907 0.7942
vn -0.9336 0.1907 0.3033
vn -0.9336 0.1907 -0.3033
vn -0.5770 0.1907 -0.7942
vn -0.0000 0.1907 -0.9816
vn 0.9336 0.1907 -0.3033
vn 0.9336 0.1907 0.3033
vn 0.5770 0.1907 -0.7942
vn 0.5770 0.1907 0.7942
vn 0.5866 0.0636 0.8074
vn -0.0000 0.1368 0.9906
vn 0.5823 0.1368 0.8014
vn -0.9421 0.1368 0.3061
vn -0.9491 0.0636 -0.3084
vn -0.9421 0.1368 -0.3061
vn -0.5823 0.1368 -0.8014
vn -0.0000 0.0636 0.9980
vn -0.5823 0.1368 0.8014
vn 0.9491 0.0636 -0.3084
vn 0.9421 0.1368 0.3061
vn 0.9421 0.1368 -0.3061
vn -0.0000 0.0636 -0.9980
vn -0.0000 0.1368 -0.9906
vn -0.9491 0.0636 0.3084
vn 0.9491 0.0636 0.3084
vn 0.5822 0.1368 0.8014
vn 0.5810 -0.7917 0.1888
vn 0.3591 -0.7917 0.4943
vn 0.5866 0.0636 -0.8074
vn 0.5823 0.1368 -0.8014
vn -0.0000 0.2845 -0.9587
vn 0.5635 0.2845 -0.7756
vn 0.3591 -0.7917 -0.4943
vn -0.0000 -0.7917 -0.6109
vn -0.5810 -0.7917 0.1888
vn -0.5810 -0.7917 -0.1888
vn -0.0000 -0.7917 0.6109
vn 0.5810 -0.7917 -0.1888
vn -0.3591 -0.7917 -0.4943
vn -0.3591 -0.7917 0.4943
vn -0.0000 -1.0000 -0.0000
vn -0.9118 0.2845 0.2963
vn -0.9118 0.2845 -0.2963
vn -0.0000 0.2845 0.9587
vn 0.5635 0.2844 0.7756
vn 0.9118 0.2845 -0.2963
vn -0.5635 0.2845 -0.7756
vn -0.5635 0.2845 0.7756
vn 0.9118 0.2845 0.2963
vn 0.5635 0.2845 0.7756
vn 0.5746 0.2110 0.7908
vn -0.0000 0.2110 0.9775
vn -0.0000 1.0000 -0.0000
vn 0.9297 0.2110 -0.3021
vn 0.5746 0.2110 -0.7908
vn -0.5746 0.2110 -0.7908
vn -0.9297 0.2110 -0.3021
vn -0.5746 0.2110 0.7908
vn 0.9297 0.2110 0.3021
vn -0.0000 0.2110 -0.9775
vn -0.9297 0.2110 0.3021
vn 0.1006 -0.9944 -0.0327
vn 0.1006 -0.9944 0.0327
vn -0.0000 -0.2117 -0.9773
vn -0.5745 -0.2117 -0.7907
vn -0.9295 -0.2117 -0.3020
vn -0.9295 -0.2117 0.3020
vn -0.5745 -0.2117 0.7907
vn -0.0000 -0.2117 0.9773
vn 0.5745 -0.2117 0.7907
vn 0.9295 -0.2117 0.3020
vn 0.9295 -0.2117 -0.3020
vn 0.0622 -0.9944 -0.0856
vn -0.0000 -0.9576 -0.2881
vn 0.1694 -0.9576 -0.2331
vn 0.2740 -0.9576 -0.0890
vn 0.2740 -0.9576 0.0890
vn 0.1694 -0.9576 0.2331
vn 0.0622 -0.9944 0.0856
vn -0.0000 -0.9576 0.2881
vn -0.0000 -0.9944 0.1058
vn -0.0622 -0.9944 0.0856
vn -0.1694 -0.9576 0.2331
vn -0.1006 -0.9944 0.0327
vn -0.2740 -0.9576 0.0890
vn -0.2740 -0.9576 -0.0890
vn -0.1006 -0.9944 -0.0327
vn -0.1694 -0.9576 -0.2331
vn -0.0622 -0.9944 -0.0856
vn -0.0000 -0.9944 -0.1058
vn -0.5866 0.0636 -0.8074
vn -0.5866 0.0636 0.8074
vt 0.241137 0.577875
vt 0.185120 0.951450
vt 0.241137 0.951450
vt 0.185120 0.577875
vt 0.129103 0.951450
vt 0.129103 0.577875
vt 0.073086 0.951450
vt 0.073086 0.577875
vt 0.017069 0.951450
vt 0.577239 0.577875
vt 0.521222 0.951450
vt 0.577239 0.951450
vt 0.521222 0.577875
vt 0.465205 0.951450
vt 0.465205 0.577875
vt 0.409188 0.951450
vt 0.409188 0.577875
vt 0.353171 0.951450
vt 0.672560 0.546015
vt 0.721633 0.638314
vt 0.739717 0.611664
vt 0.353171 0.577875
vt 0.297154 0.951450
vt 0.297154 0.577875
vt 0.185120 0.986492
vt 0.593192 0.727547
vt 0.696793 0.701794
vt 0.601391 0.678753
vt 0.617025 0.631290
vt 0.640501 0.586501
vt 0.707129 0.668752
vt 0.592118 0.776592
vt 0.690932 0.736376
vt 0.692976 0.806433
vt 0.689664 0.771546
vt 0.610485 0.871689
vt 0.597936 0.824939
vt 0.629669 0.915914
vt 0.700751 0.840205
vt 0.728761 0.901042
vt 0.712783 0.872032
vt 0.655469 0.956573
vt 0.748305 0.926395
vt 0.521222 0.540249
vt 0.465205 0.540249
vt 0.409188 0.540249
vt 0.353171 0.540249
vt 0.297154 0.540249
vt 0.241137 0.540249
vt 0.129103 0.540249
vt 0.073086 0.540249
vt 0.185120 0.540249
vt 0.017069 0.540249
vt 0.017069 0.577875
vt 0.846320 0.863944
vt 0.792011 0.865140
vt 0.802741 0.884766
vt 0.775651 0.820041
vt 0.824263 0.789519
vt 0.771015 0.795443
vt 0.769104 0.770123
vt 0.838552 0.846319
vt 0.782780 0.843428
vt 0.832224 0.709660
vt 0.788286 0.671872
vt 0.779887 0.694943
vt 0.824302 0.749550
vt 0.770006 0.744588
vt 0.827250 0.809040
vt 0.838702 0.690131
vt 0.798403 0.650590
vt 0.919168 0.893794
vt 0.911252 0.870181
vt 0.906427 0.876756
vt 0.827337 0.729505
vt 0.773669 0.719354
vt 0.891047 0.963020
vt 0.913288 0.992286
vt 0.916378 0.962913
vt 0.906809 0.932169
vt 0.886459 0.946831
vt 0.911499 0.938679
vt 0.853167 0.893882
vt 0.845458 0.917554
vt 0.853239 0.915103
vt 0.886167 0.862094
vt 0.886053 0.870260
vt 0.919265 0.915009
vt 0.926949 0.917629
vt 0.861136 0.938768
vt 0.865971 0.932149
vt 0.861066 0.870060
vt 0.865722 0.876755
vt 0.926934 0.891339
vt 0.886453 0.938517
vt 0.845458 0.891228
vt 0.698030 0.269342
vt 0.693586 0.290973
vt 0.698032 0.289527
vt 0.815053 0.963341
vt 0.838703 0.992180
vt 0.840384 0.963234
vt 0.764391 0.963555
vt 0.739257 0.992039
vt 0.764118 0.992075
vt 0.938150 0.992321
vt 0.941709 0.962806
vt 0.865716 0.963127
vt 0.863565 0.992215
vt 0.789722 0.963448
vt 0.788980 0.992110
vt 0.963011 0.992356
vt 0.967040 0.962698
vt 0.888427 0.992251
vt 0.813842 0.992145
vt 0.992371 0.962591
vt 0.987873 0.992391
vt 0.020757 0.507073
vt 0.037516 0.474140
vt 0.020755 0.483998
vt 0.729089 0.246769
vt 0.751035 0.249221
vt 0.729088 0.242093
vt 0.760157 0.289519
vt 0.751044 0.309634
vt 0.764604 0.290963
vt 0.707152 0.309639
vt 0.709899 0.305856
vt 0.709892 0.253009
vt 0.707143 0.249227
vt 0.764601 0.267888
vt 0.760155 0.269333
vt 0.729098 0.312091
vt 0.729099 0.316767
vt 0.693582 0.267897
vt 0.748288 0.253004
vt 0.748295 0.305851
vt 0.313760 0.055124
vt 0.252625 0.035269
vt 0.252630 0.074995
vt 0.020741 0.322469
vt 0.037507 0.348829
vt 0.037505 0.327944
vt 0.020747 0.391696
vt 0.037511 0.411484
vt 0.037510 0.390599
vt 0.037515 0.453255
vt 0.020753 0.460922
vt 0.037503 0.307058
vt 0.020739 0.299394
vt 0.020745 0.368620
vt 0.037508 0.369714
vt 0.037513 0.432370
vt 0.020751 0.437847
vt 0.037502 0.286173
vt 0.020737 0.276318
vt 0.020743 0.345545
vt 0.020749 0.414771
vt 0.974755 0.487749
vt 0.974716 0.441555
vt 0.902161 0.464775
vt 0.241137 0.986492
vt 0.297154 0.986492
vt 0.353171 0.986492
vt 0.409188 0.986492
vt 0.465205 0.986492
vt 0.521222 0.986492
vt 0.577239 0.986492
vt 0.017069 0.986492
vt 0.073086 0.986492
vt 0.129103 0.986492
vt 0.948096 0.525420
vt 0.904931 0.551871
vt 0.954783 0.534260
vt 0.985284 0.491092
vt 0.985284 0.438220
vt 0.950529 0.390730
vt 0.944442 0.399636
vt 0.893979 0.378125
vt 0.895031 0.389107
vt 0.852639 0.407161
vt 0.845454 0.398780
vt 0.828434 0.446355
vt 0.817726 0.443657
vt 0.821007 0.496325
vt 0.831310 0.492341
vt 0.854122 0.537439
vt 0.860233 0.528230
vt 0.904596 0.540815
vt 0.687941 0.992376
vt 0.577239 0.540249
vt 0.823264 0.769622
vt 0.832088 0.828012
vt 0.846398 0.670763
vt 0.739060 0.963662
vt 0.037518 0.495025
vt 0.269528 0.087269
vt 0.290413 0.087266
vt 0.307308 0.074988
vt 0.307303 0.035262
vt 0.290405 0.022988
vt 0.269520 0.022991
vt 0.246174 0.055133
s 1
usemtl Material.001
f 1/1/1 2/2/2 3/3/3
f 4/4/4 5/5/5 2/2/2
f 6/6/6 7/7/7 5/5/5
f 8/8/8 9/9/9 7/7/7
f 10/10/10 11/11/11 12/12/9
f 13/13/12 14/14/13 11/11/11
f 15/15/14 16/16/15 14/14/13
f 17/17/16 18/18/17 16/16/15
f 19/19/18 20/20/19 21/21/20
f 22/22/21 23/23/22 18/18/17
f 24/24/23 3/3/3 23/23/22
f 5/5/5 25/25/24 2/2/2
f 26/26/25 27/27/26 28/28/27
f 29/29/28 20/20/19 30/30/29
f 28/28/27 31/31/30 29/29/28
f 32/32/31 33/33/32 26/26/25
f 32/32/31 34/34/33 35/35/34
f 36/36/35 34/34/33 37/37/36
f 38/38/37 39/39/38 36/36/35
f 38/38/37 40/40/39 41/41/40
f 42/42/41 43/43/42 40/40/39
f 10/10/10 44/44/43 13/13/12
f 13/13/12 45/45/44 15/15/14
f 15/15/14 46/46/45 17/17/16
f 17/17/16 47/47/46 22/22/21
f 24/24/23 47/47/46 48/48/47
f 1/1/1 48/48/47 49/49/48
f 4/4/4 50/50/49 6/6/6
f 8/8/8 50/50/49 51/51/50
f 4/4/4 49/49/48 52/52/51
f 8/8/8 53/53/52 54/54/10
f 55/55/53 56/56/54 57/57/55
f 58/58/56 59/59/57 60/60/58
f 59/59/57 61/61/59 60/60/58
f 62/62/60 63/63/61 56/56/54
f 64/64/62 65/65/63 66/66/64
f 61/61/59 67/67/65 68/68/66
f 63/63/61 69/69/67 58/58/56
f 70/70/68 71/71/69 65/65/63
f 72/72/70 73/73/71 74/74/71
f 75/75/72 66/66/64 76/76/73
f 77/77/74 78/78/75 79/79/75
f 80/80/76 81/81/77 82/82/76
f 83/83/78 84/84/79 85/85/79
f 74/74/71 86/86/80 87/87/80
f 88/88/81 82/82/76 89/89/81
f 85/85/79 90/90/82 91/91/82
f 87/87/80 92/92/83 93/93/83
f 88/88/81 94/94/70 72/72/70
f 95/95/77 90/90/82 81/81/77
f 83/83/78 92/92/83 96/96/78
s 0
f 97/97/84 98/98/84 99/99/84
s 1
f 100/100/85 101/101/86 102/102/86
f 103/103/87 104/104/88 105/105/87
f 79/79/75 106/106/89 107/107/89
f 108/108/90 101/101/86 109/109/90
f 110/110/91 105/105/87 111/111/91
f 107/107/89 112/112/92 113/113/92
f 108/108/90 114/114/74 77/77/74
f 110/110/91 115/115/85 100/100/85
f 116/116/93 112/112/92 117/117/88
f 118/118/94 119/119/95 120/120/95
s 0
f 121/121/84 122/122/84 123/123/84
f 124/124/84 125/125/84 126/126/84
f 99/99/84 127/127/84 128/128/84
f 129/129/84 123/123/84 130/130/84
f 124/124/84 131/131/84 132/132/84
f 133/133/84 127/127/84 134/134/84
f 97/97/84 130/130/84 135/135/84
f 136/136/84 131/131/84 122/122/84
f 137/137/84 134/134/84 125/125/84
f 138/138/96 139/139/96 140/140/96
s 1
f 141/141/97 142/142/98 143/143/97
f 144/144/99 145/145/100 146/146/99
f 120/120/95 147/147/101 148/148/101
f 141/141/97 149/149/102 150/150/102
f 151/151/103 146/146/99 152/152/103
f 148/148/101 153/153/104 154/154/104
f 150/150/102 155/155/94 156/156/94
f 151/151/103 142/142/98 157/157/98
f 154/154/104 145/145/100 158/158/100
f 159/159/105 160/160/106 161/161/84
f 23/23/22 162/162/107 163/163/108
f 18/18/17 163/163/108 164/164/109
f 18/18/17 165/165/110 16/16/15
f 16/16/15 166/166/111 14/14/13
f 14/14/13 167/167/112 11/11/11
f 12/12/9 167/167/112 168/168/113
f 7/7/7 169/169/113 170/170/114
f 2/2/2 162/162/107 3/3/3
f 7/7/7 171/171/115 5/5/5
f 172/172/116 173/173/117 174/174/118
f 159/159/105 174/174/118 175/175/119
f 160/160/106 175/175/119 176/176/120
f 160/160/106 177/177/121 178/178/122
f 178/178/122 179/179/123 180/180/124
f 181/181/125 179/179/123 182/182/126
f 183/183/127 182/182/126 184/184/128
f 183/183/127 185/185/129 186/186/130
f 186/186/130 187/187/131 188/188/132
f 188/188/132 173/173/117 189/189/133
f 188/188/132 189/189/133 161/161/84
f 181/181/125 183/183/127 161/161/84
f 160/160/106 178/178/122 161/161/84
f 189/189/133 172/172/116 161/161/84
f 183/183/127 186/186/130 161/161/84
f 178/178/122 180/180/124 161/161/84
f 172/172/116 159/159/105 161/161/84
f 186/186/130 188/188/132 161/161/84
f 180/180/124 181/181/125 161/161/84
f 68/68/66 75/75/72 76/76/73
f 68/68/66 27/27/26 33/33/32
f 76/76/73 31/31/30 27/27/26
f 20/20/19 71/71/69 21/21/20
f 63/63/61 39/39/38 41/41/40
f 61/61/59 33/33/32 35/35/34
f 66/66/64 20/20/19 31/31/30
f 40/40/39 63/63/61 41/41/40
f 60/60/58 35/35/34 34/34/33
f 58/58/56 34/34/33 39/39/38
f 43/43/42 56/56/54 40/40/39
f 1/1/1 4/4/4 2/2/2
f 4/4/4 6/6/6 5/5/5
f 6/6/6 8/8/8 7/7/7
f 8/8/8 54/54/10 9/9/9
f 10/10/10 13/13/12 11/11/11
f 13/13/12 15/15/14 14/14/13
f 15/15/14 17/17/16 16/16/15
f 17/17/16 22/22/21 18/18/17
f 19/19/18 30/30/29 20/20/19
f 22/22/21 24/24/23 23/23/22
f 24/24/23 1/1/1 3/3/3
f 5/5/5 171/171/115 25/25/24
f 26/26/25 33/33/32 27/27/26
f 29/29/28 31/31/30 20/20/19
f 28/28/27 27/27/26 31/31/30
f 32/32/31 35/35/34 33/33/32
f 32/32/31 37/37/36 34/34/33
f 36/36/35 39/39/38 34/34/33
f 38/38/37 41/41/40 39/39/38
f 38/38/37 42/42/41 40/40/39
f 42/42/41 190/190/18 43/43/42
f 10/10/10 191/191/52 44/44/43
f 13/13/12 44/44/43 45/45/44
f 15/15/14 45/45/44 46/46/45
f 17/17/16 46/46/45 47/47/46
f 24/24/23 22/22/21 47/47/46
f 1/1/1 24/24/23 48/48/47
f 4/4/4 52/52/51 50/50/49
f 8/8/8 6/6/6 50/50/49
f 4/4/4 1/1/1 49/49/48
f 8/8/8 51/51/50 53/53/52
f 55/55/53 62/62/60 56/56/54
f 58/58/56 69/69/67 59/59/57
f 59/59/57 192/192/134 61/61/59
f 62/62/60 193/193/135 63/63/61
f 64/64/62 70/70/68 65/65/63
f 61/61/59 192/192/134 67/67/65
f 63/63/61 193/193/135 69/69/67
f 70/70/68 194/194/53 71/71/69
f 72/72/70 94/94/70 73/73/71
f 75/75/72 64/64/62 66/66/64
f 77/77/74 114/114/74 78/78/75
f 80/80/76 95/95/77 81/81/77
f 83/83/78 96/96/78 84/84/79
f 74/74/71 73/73/71 86/86/80
f 88/88/81 80/80/76 82/82/76
f 85/85/79 84/84/79 90/90/82
f 87/87/80 86/86/80 92/92/83
f 88/88/81 89/89/81 94/94/70
f 95/95/77 91/91/82 90/90/82
f 83/83/78 93/93/83 92/92/83
s 0
f 97/97/84 135/135/84 98/98/84
s 1
f 100/100/85 115/115/85 101/101/86
f 103/103/87 195/195/93 104/104/88
f 79/79/75 78/78/75 106/106/89
f 108/108/90 102/102/86 101/101/86
f 110/110/91 103/103/87 105/105/87
f 107/107/89 106/106/89 112/112/92
f 108/108/90 109/109/90 114/114/74
f 110/110/91 111/111/91 115/115/85
f 116/116/93 113/113/92 112/112/92
f 118/118/94 196/196/94 119/119/95
s 0
f 121/121/84 136/136/84 122/122/84
f 124/124/84 137/137/84 125/125/84
f 99/99/84 98/98/84 127/127/84
f 129/129/84 121/121/84 123/123/84
f 124/124/84 126/126/84 131/131/84
f 133/133/84 128/128/84 127/127/84
f 97/97/84 129/129/84 130/130/84
f 136/136/84 132/132/84 131/131/84
f 137/137/84 133/133/84 134/134/84
f 140/140/96 197/197/96 198/198/96
f 198/198/96 199/199/96 140/140/96
f 199/199/96 138/138/96 140/140/96
f 138/138/96 200/200/96 201/201/96
f 201/201/96 202/202/96 138/138/96
f 202/202/96 139/139/96 138/138/96
f 139/139/96 203/203/96 140/140/96
s 1
f 141/141/97 157/157/98 142/142/98
f 144/144/99 158/158/100 145/145/100
f 120/120/95 119/119/95 147/147/101
f 141/141/97 143/143/97 149/149/102
f 151/151/103 144/144/99 146/146/99
f 148/148/101 147/147/101 153/153/104
f 150/150/102 149/149/102 155/155/94
f 151/151/103 152/152/103 142/142/98
f 154/154/104 153/153/104 145/145/100
f 23/23/22 3/3/3 162/162/107
f 18/18/17 23/23/22 163/163/108
f 18/18/17 164/164/109 165/165/110
f 16/16/15 165/165/110 166/166/111
f 14/14/13 166/166/111 167/167/112
f 12/12/9 11/11/11 167/167/112
f 7/7/7 9/9/9 169/169/113
f 2/2/2 25/25/24 162/162/107
f 7/7/7 170/170/114 171/171/115
f 172/172/116 189/189/133 173/173/117
f 159/159/105 172/172/116 174/174/118
f 160/160/106 159/159/105 175/175/119
f 160/160/106 176/176/120 177/177/121
f 178/178/122 177/177/121 179/179/123
f 181/181/125 180/180/124 179/179/123
f 183/183/127 181/181/125 182/182/126
f 183/183/127 184/184/128 185/185/129
f 186/186/130 185/185/129 187/187/131
f 188/188/132 187/187/131 173/173/117
f 68/68/66 67/67/65 75/75/72
f 68/68/66 76/76/73 27/27/26
f 76/76/73 66/66/64 31/31/30
f 20/20/19 65/65/63 71/71/69
f 63/63/61 58/58/56 39/39/38
f 61/61/59 68/68/66 33/33/32
f 66/66/64 65/65/63 20/20/19
f 40/40/39 56/56/54 63/63/61
f 60/60/58 61/61/59 35/35/34
f 58/58/56 60/60/58 34/34/33
f 43/43/42 57/57/55 56/56/54
